<svg width="600" height="750" viewBox="0 0 600 750" xmlns="http://www.w3.org/2000/svg">
  <rect width="600" height="750" rx="60" fill="#f7f2e8" />
  <path d="M170 110 C170 80 220 80 220 110 L220 180 C220 220 170 220 170 180 Z" fill="#444" />
  <path d="M430 110 C430 80 380 80 380 110 L380 180 C380 220 430 220 430 180 Z" fill="#444" />
  <path d="M170 180 L170 560 C170 610 190 650 210 650 H390 C410 650 430 610 430 560 L430 180 Z" fill="#2c2c2c" />
  <path d="M210 320 C240 300 300 300 390 320" stroke="#f7f2e8" stroke-width="24" stroke-linecap="round" fill="none" />
  <path d="M230 420 H370" stroke="#f7f2e8" stroke-width="18" stroke-linecap="round" />
  <path d="M250 520 H350" stroke="#f7f2e8" stroke-width="18" stroke-linecap="round" />
</svg>
