<svg width="600" height="750" viewBox="0 0 600 750" xmlns="http://www.w3.org/2000/svg">
  <defs>
    <linearGradient id="bodyGrad" x1="0" x2="0" y1="0" y2="1">
      <stop offset="0%" stop-color="#202020" />
      <stop offset="100%" stop-color="#111111" />
    </linearGradient>
  </defs>
  <rect width="600" height="750" rx="60" fill="#f5f1e9" />
  <path d="M170 110 C170 80 220 80 220 110 L220 180 C220 220 170 220 170 180 Z" fill="#111" />
  <path d="M430 110 C430 80 380 80 380 110 L380 180 C380 220 430 220 430 180 Z" fill="#111" />
  <path d="M170 180 L170 560 C170 610 190 650 210 650 H390 C410 650 430 610 430 560 L430 180 Z" fill="url(#bodyGrad)" />
  <path d="M210 240 H390" stroke="#f5f1e9" stroke-width="18" stroke-linecap="round" />
  <path d="M210 320 H390" stroke="#f5f1e9" stroke-width="18" stroke-linecap="round" />
  <path d="M210 400 H390" stroke="#f5f1e9" stroke-width="18" stroke-linecap="round" />
  <circle cx="300" cy="475" r="40" fill="#f5f1e9" opacity="0.5" />
</svg>
